<svg xmlns="http://www.w3.org/2000/svg" width="47" height="59" viewBox="0 0 47 59"><g fill="none" fill-rule="evenodd"><path fill="#FCA74B" d="M0 23.709c0 1.92.255 3.885.76 5.844.012.131.041.263.087.392.147.411 1.47 4.063 2.384 5.611a68.545 68.545 0 0 0 19.056 22.617c.139.159.31.295.505.395.193.099.4.155.613.167a1.73 1.73 0 0 0 .903-.173c.178-.088.335-.21.465-.358C42.601 44.55 46.078 30.24 46.206 29.68c.527-2.006.794-4.014.794-5.971C47 10.75 36.459.208 23.5.208 10.544.209 0 10.753 0 23.709z"/><g fill="#F8F8F8"><path d="M22.973 14.288a3.497 3.497 0 0 0-3.493 3.493 3.497 3.497 0 0 0 3.493 3.493 3.497 3.497 0 0 0 3.493-3.493 3.497 3.497 0 0 0-3.493-3.493zm0 5.589a2.096 2.096 0 1 1 0-4.192 2.096 2.096 0 0 1 0 4.192z"/><path d="M36.247 34.548H34.15V23.37h1.397a1.398 1.398 0 0 0 .988-2.386L23.961 8.41a1.395 1.395 0 0 0-1.976 0l-3.903 3.903v-1.517c0-.772-.625-1.398-1.397-1.398h-1.397c-.772 0-1.398.626-1.398 1.398v5.708l-4.48 4.481a1.397 1.397 0 0 0 .987 2.386h1.398v11.178H9.699a.698.698 0 1 0 0 1.398h26.548a.698.698 0 1 0 0-1.398zm-20.96-23.753h1.398v2.914l-1.397 1.397v-4.311zm9.782 23.753h-4.192v-9.78h4.192v9.78zm7.685 0h-6.288v-9.78c0-.772-.626-1.398-1.397-1.398h-4.192c-.772 0-1.397.626-1.397 1.397v9.781h-6.288V21.973h-2.795L22.973 9.397l12.575 12.576h-2.794v12.575z"/></g></g></svg>