<svg xmlns="http://www.w3.org/2000/svg" width="35" height="48" viewBox="0 0 35 48"><g fill-rule="evenodd"><path d="M34.652 12.905L22.18.278A.931.931 0 0 0 21.518 0H3.944C1.81 0 .074 1.758.074 3.919V44.08c0 2.162 1.736 3.92 3.87 3.92h27.112c2.134 0 3.87-1.758 3.87-3.919V13.576a.955.955 0 0 0-.274-.67zM22.455 3.24l9.272 9.388h-7.276c-1.1 0-1.996-.907-1.996-2.021V3.239zm10.597 40.842c0 1.115-.895 2.022-1.996 2.022H3.944c-1.1 0-1.996-.907-1.996-2.022V3.92c0-1.115.895-2.022 1.996-2.022h16.637v8.709c0 2.16 1.736 3.919 3.87 3.919h8.601V44.08z"/><path d="M24.995 24.095h-14.99a.943.943 0 0 0-.937.949c0 .523.42.948.937.948h14.99a.943.943 0 0 0 .937-.948.943.943 0 0 0-.937-.95zm0 4.237h-14.99a.943.943 0 0 0-.937.949c0 .524.42.948.937.948h14.99a.943.943 0 0 0 .937-.948.943.943 0 0 0-.937-.949zm0 4.237h-14.99a.943.943 0 0 0-.937.949c0 .524.42.948.937.948h14.99a.943.943 0 0 0 .937-.948.943.943 0 0 0-.937-.949zm-4.872 4.237H10.005a.943.943 0 0 0-.937.949c0 .524.42.949.937.949h10.118a.943.943 0 0 0 .937-.949.943.943 0 0 0-.937-.949z"/></g></svg>